<?xml version="1.0" encoding="utf-8"?>
<!-- Generator: Adobe Illustrator 28.0.0, SVG Export Plug-In . SVG Version: 6.00 Build 0)  -->
<svg version="1.1" id="Layer_1" xmlns="http://www.w3.org/2000/svg" xmlns:xlink="http://www.w3.org/1999/xlink" x="0px" y="0px"
	 viewBox="0 0 100 100" style="enable-background:new 0 0 100 100;" xml:space="preserve">
<style type="text/css">
	.st0{fill:#F79036;stroke:#000000;stroke-miterlimit:10;}
	.st1{fill:#F15C2C;stroke:#000000;stroke-miterlimit:10;}
</style>
<rect x="24.75" y="18.41" transform="matrix(0.7071 -0.7071 0.7071 0.7071 -14.2719 30.089)" class="st0" width="8.86" height="27.73"/>
<rect x="38.16" y="18.41" transform="matrix(0.7071 0.7071 -0.7071 0.7071 35.2954 -20.666)" class="st0" width="8.86" height="27.73"/>
<rect x="51.61" y="18.41" transform="matrix(-0.7071 0.7071 -0.7071 -0.7071 118.483 15.4672)" class="st0" width="8.86" height="27.73"/>
<rect x="64.94" y="18.41" transform="matrix(-0.7071 -0.7071 0.7071 -0.7071 95.6136 104.1489)" class="st0" width="8.86" height="27.73"/>
<polygon class="st1" points="62.82,45.1 56.55,38.83 49.28,46.1 42.01,38.83 35.75,45.1 43.01,52.37 36.94,58.44 43.21,64.71 
	49.28,58.64 55.35,64.71 61.62,58.44 55.55,52.37 "/>
<g>
	<path d="M32.99,70.71v3.84c0,0.48-0.14,0.87-0.43,1.17s-0.66,0.45-1.12,0.45c-0.55,0-0.97-0.25-1.27-0.75
		c-0.18,0.27-0.37,0.46-0.58,0.58s-0.46,0.17-0.76,0.17c-0.48,0-0.85-0.15-1.1-0.45s-0.38-0.74-0.38-1.3v-3.71h1.59v3.47
		c0,0.17,0.01,0.29,0.04,0.34s0.08,0.08,0.17,0.08c0.16,0,0.23-0.13,0.23-0.39v-3.5h1.59v3.47c0,0.17,0.01,0.28,0.04,0.34
		s0.08,0.09,0.17,0.09c0.16,0,0.23-0.14,0.23-0.42v-3.47H32.99z"/>
	<path d="M35.68,72.06c0.55,0,1.03,0.2,1.42,0.6s0.59,0.87,0.59,1.43c0,0.56-0.2,1.04-0.6,1.44s-0.88,0.59-1.45,0.59
		s-1.05-0.2-1.45-0.6s-0.6-0.88-0.6-1.44c0-0.57,0.2-1.05,0.6-1.44S35.1,72.06,35.68,72.06z M35.65,73.5c-0.16,0-0.29,0.06-0.4,0.17
		s-0.16,0.25-0.16,0.42c0,0.16,0.06,0.3,0.17,0.41s0.24,0.17,0.4,0.17c0.16,0,0.29-0.06,0.4-0.17s0.17-0.25,0.17-0.41
		c0-0.16-0.05-0.3-0.16-0.42S35.8,73.5,35.65,73.5z"/>
	<path d="M40.44,72.1v1.56c-0.1-0.06-0.19-0.09-0.28-0.09c-0.27,0-0.4,0.2-0.4,0.61v1.85h-1.46v-2.13c0-0.56,0.15-1.01,0.46-1.35
		s0.72-0.5,1.23-0.5C40.11,72.06,40.26,72.08,40.44,72.1z"/>
	<path d="M42.33,70.71v5.33h-1.46v-5.33H42.33z"/>
	<path d="M45.59,70.71h1.46v3.25c0,0.6-0.16,1.08-0.47,1.46c-0.18,0.22-0.41,0.39-0.69,0.52s-0.56,0.19-0.85,0.19
		c-0.58,0-1.07-0.2-1.47-0.59s-0.6-0.87-0.6-1.44c0-0.55,0.2-1.02,0.59-1.43s0.86-0.6,1.41-0.6c0.09,0,0.22,0.01,0.39,0.02v1.61
		c-0.12-0.09-0.24-0.14-0.36-0.14c-0.15,0-0.28,0.06-0.39,0.17s-0.16,0.24-0.16,0.4c0,0.15,0.06,0.28,0.17,0.39s0.25,0.16,0.4,0.16
		c0.38,0,0.56-0.26,0.56-0.78V70.71z"/>
	<path d="M53.6,70.71l-1.39,2.59l1.43,2.74h-1.67l-0.66-1.29l-0.55,1.29h-1.64l1.46-2.7l-1.39-2.64h1.65l0.62,1.21l0.5-1.21H53.6z"
		/>
	<path d="M55.18,77.48h-1.46v-3.25c0-0.6,0.16-1.08,0.47-1.46c0.18-0.22,0.41-0.39,0.69-0.52s0.56-0.19,0.85-0.19
		c0.58,0,1.07,0.2,1.47,0.59s0.6,0.87,0.6,1.44c0,0.55-0.2,1.03-0.59,1.43s-0.86,0.6-1.41,0.6c-0.09,0-0.22-0.01-0.39-0.03v-1.61
		c0.12,0.1,0.24,0.14,0.36,0.14c0.15,0,0.28-0.06,0.39-0.17s0.16-0.25,0.16-0.4s-0.06-0.28-0.17-0.39s-0.25-0.16-0.4-0.16
		c-0.38,0-0.56,0.26-0.56,0.78V77.48z"/>
	<path d="M59.89,70.71v5.33h-1.46v-5.33H59.89z"/>
	<path d="M62.59,72.06c0.55,0,1.03,0.2,1.42,0.6s0.59,0.87,0.59,1.43c0,0.56-0.2,1.04-0.6,1.44s-0.88,0.59-1.45,0.59
		s-1.05-0.2-1.45-0.6s-0.6-0.88-0.6-1.44c0-0.57,0.2-1.05,0.6-1.44S62.01,72.06,62.59,72.06z M62.56,73.5
		c-0.16,0-0.29,0.06-0.4,0.17s-0.16,0.25-0.16,0.42c0,0.16,0.06,0.3,0.17,0.41s0.24,0.17,0.4,0.17c0.16,0,0.29-0.06,0.4-0.17
		s0.17-0.25,0.17-0.41c0-0.16-0.05-0.3-0.16-0.42S62.71,73.5,62.56,73.5z"/>
	<path d="M67.35,72.1v1.56c-0.1-0.06-0.19-0.09-0.28-0.09c-0.27,0-0.4,0.2-0.4,0.61v1.85h-1.46v-2.13c0-0.56,0.15-1.01,0.46-1.35
		s0.72-0.5,1.23-0.5C67.02,72.06,67.17,72.08,67.35,72.1z"/>
	<path d="M71.61,74.33H69.4c-0.03-0.11-0.05-0.21-0.05-0.31c0-0.13,0.02-0.26,0.07-0.38h0.74c-0.05-0.29-0.21-0.43-0.49-0.43
		c-0.18,0-0.33,0.08-0.45,0.23s-0.17,0.35-0.17,0.6c0,0.25,0.06,0.46,0.17,0.61s0.26,0.23,0.44,0.23c0.15,0,0.29-0.07,0.42-0.22
		l0.83,1c-0.39,0.3-0.82,0.46-1.29,0.46c-0.58,0-1.06-0.19-1.46-0.58s-0.59-0.87-0.59-1.44c0-0.57,0.2-1.05,0.6-1.45
		s0.88-0.59,1.46-0.59c0.57,0,1.04,0.19,1.42,0.58s0.58,0.86,0.58,1.42C71.63,74.11,71.62,74.2,71.61,74.33z"/>
</g>
</svg>
